{"title":"Waking the Dead S03","uid":15686148,"size":3474081317,"categoryP":"video","categoryS":"tv_shows","magnet":"?xt=urn:btih:13d420cc7ab9ed3c536c2acaea5ab51f72f03d94&amp;dn=Waking+the+Dead+S03&amp;tr=udp%3A%2F%2Ftracker.leechers-paradise.org%3A6969&amp;tr=udp%3A%2F%2Fzer0day.ch%3A1337&amp;tr=udp%3A%2F%2Fopen.demonii.com%3A1337&amp;tr=udp%3A%2F%2Ftracker.coppersurfer.tk%3A6969&amp;tr=udp%3A%2F%2Fexodus.desync.com%3A6969","seeders":5,"leechers":2,"uploader":"RedBaron58","files":8,"time":1472351326,"description":"Waking the Dead S03 DVDrip x264 mp4\r\n  \nhttp://www.imdb.com/title/tt0259733/\r\n\r\nThank you for your kind comments and feedback on my other torrents, your feedback is welcome.\r\n\r\nAbout the Series:\r\nDetective Superintendent Peter Boyd is the leader of a police team which investigates \r\nunsolved murders using modern technology.\r\nStarring  Trevor Eve, Sue Johnston and Wil Johnson.  \r\n\r\nEpisode 1 &amp; 2 &quot;Multistorey&quot;\r\nCarl McKenzie, a man convicted of opening fire on a town centre crowd from a multi-storey \r\ncar park, and killing a policeman in the process, protests his innocence.\r\n\r\nEpisode 3 &amp; 4 &quot;Walking on Water&quot;\r\nWhen Mark Lovell, a man convicted of murdering his adoptive father ten years previously, \r\nis cleared on appeal, Boyd is not convinced that he is innocent.\r\n\r\nEpisode 5 &amp; 6 &quot;Breaking Glass&quot;\r\nWhen a memory therapist approaches Boyd with information about a sexual abuser at a children's \r\ncare home, the team unravel a regime of sexually abused young boys, and a suspected murderer, \r\nonly known to his victims as Papa Doc.\r\n\r\nEpisode 7 &amp; 8 &quot;Final Cut&quot;\r\nThe discovery of a mummified body in a derelict house in Notting Hill leads the team back \r\nto the sixties, and a film which was shot in the house, featuring a murderous fight \r\nbetween gangsters.\r\n\r\n\r\nTechnical: (All episodes are encoded to the same settings)\r\n\r\nGeneral\r\nComplete name                            : I:Waking the Dead S03Waking The Dead S03E01 - Multistorey pt1 x264 RB58.mp4\r\nFormat                                   : MPEG-4\r\nFormat profile                           : Base Media / Version 2\r\nCodec ID                                 : mp42\r\nFile size                                : 425 MiB\r\nDuration                                 : 59mn 25s\r\nOverall bit rate mode                    : Variable\r\nOverall bit rate                         : 1 000 Kbps\r\nEncoded date                             : UTC 2016-08-22 21:21:07\r\nTagged date                              : UTC 2016-08-22 21:23:12\r\nWriting application                      : HandBrake 0.9.8 2012071700\r\n\r\nVideo\r\nID                                       : 1\r\nFormat                                   : AVC\r\nFormat/Info                              : Advanced Video Codec\r\nFormat profile                           :   \r\nFormat settings, CABAC                   : Yes\r\nFormat settings, ReFrames                : 4 frames\r\nCodec ID                                 : avc1\r\nCodec ID/Info                            : Advanced Video Coding\r\nDuration                                 : 59mn 25s\r\nBit rate                                 : 900 Kbps\r\nWidth                                    : 716 pixels\r\nHeight                                   : 576 pixels\r\nDisplay aspect ratio                     : 16:9\r\nFrame rate mode                          : Constant\r\nFrame rate                               : 25.000 fps\r\nColor space                              : YUV\r\nChroma subsampling                       : 4:2:0\r\nBit depth                                : 8 bits\r\nScan type                                : Progressive\r\nBits/(Pixel*Frame)                       : 0.087\r\nStream size                              : 383 MiB (90%)\r\nWriting library                          : x264 core 120\r\nEncoding settings                        : cabac=1 / ref=1 / deblock=1:0:0\r\nEncoded date                             : UTC 2016-08-22 21:21:07\r\nTagged date                              : UTC 2016-08-22 21:23:12\r\nColor range                              : Limited\r\nColor primaries                          : BT.601 NTSC\r\nTransfer characteristics                 : BT.709\r\nMatrix coefficients                      : BT.601\r\n\r\nAudio\r\nID                                       : 2\r\nFormat                                   : AAC\r\nFormat/Info                              : Advanced Audio Codec\r\nFormat profile                           : LC\r\nCodec ID                                 : 40\r\nDuration                                 : 59mn 25s\r\nBit rate mode                            : Variable\r\nBit rate                                 : 96.0 Kbps\r\nMaximum bit rate                         : 117 Kbps\r\nChannel(s)                               : 2 channels\r\nChannel positions                        : Front: L R\r\nSampling rate                            : 48.0 KHz\r\nCompression mode                         : Lossy\r\nStream size                              : 40.8 MiB (10%)\r\nTitle                                    : Stereo\r\nLanguage                                 : English","torrent":{"xt":"urn:btih:13d420cc7ab9ed3c536c2acaea5ab51f72f03d94","amp;dn":"Waking+the+Dead+S03","amp;tr":["udp%3A%2F%2Ftracker.leechers-paradise.org%3A6969","udp%3A%2F%2Fzer0day.ch%3A1337","udp%3A%2F%2Fopen.demonii.com%3A1337","udp%3A%2F%2Ftracker.coppersurfer.tk%3A6969","udp%3A%2F%2Fexodus.desync.com%3A6969"],"infoHash":"13d420cc7ab9ed3c536c2acaea5ab51f72f03d94","infoHashBuffer":{"type":"Buffer","data":[19,212,32,204,122,185,237,60,83,108,42,202,234,90,181,31,114,240,61,148]},"announce":[],"urlList":[]}}